# xmcd
#
# Track frame offsets:
#	150
#	13391
#	24152
#	34466
#	43492
#	52925
#	61234
#	73521
#	81851
#	93672
#	100118
#	110713
#	120907
#	131882
#	141149
#	151415
#	160997
#	172790
#	186105
#	194593
#	206841
#	223976
#	231592
#	240740
#
# Disc length: 3420 seconds
#
# Revision: 1
# Processed by: cddbd v1.4b42PL1 Copyright (c) Steve Scherf et al.
# Submitted via: audiograbber 1.80.04
#
DISCID=660d5a18
DTITLE=The Original Blind Boys of Alabama - You'll Never Walk Alone/True Convic
DTITLE=tions
DYEAR=2001
DGENRE=Gospel
TTITLE0=You'll Never Walk Alone
TTITLE1=Walk With Me
TTITLE2=I Got A Home In That Rock
TTITLE3=Somebody Bigger Than You And I
TTITLE4=Looking Back
TTITLE5=In The Garden
TTITLE6=Deep River
TTITLE7=I've Been 'Buked
TTITLE8=My Lord, What A Morning
TTITLE9=Rock, Sword and Shield
TTITLE10=Have Faith
TTITLE11=Danny Boy
TTITLE12=I Can See Everybody's Mother
TTITLE13=What He's Done For Me
TTITLE14=After A While
TTITLE15=Old Time Religion
TTITLE16=Just A Closer Walk With Thee
TTITLE17=Tell God All About It
TTITLE18=I'm Journeying On
TTITLE19=Christian In My Heart
TTITLE20=Precious Lord
TTITLE21=God Is Real
TTITLE22=I Just Rose To Tell You
TTITLE23=How Far Am I From Canaan
EXTD=Two albums originally recorded in 1963
EXTT0=
EXTT1=
EXTT2=
EXTT3=
EXTT4=
EXTT5=
EXTT6=
EXTT7=
EXTT8=
EXTT9=
EXTT10=
EXTT11=
EXTT12=
EXTT13=
EXTT14=
EXTT15=
EXTT16=
EXTT17=
EXTT18=
EXTT19=
EXTT20=
EXTT21=
EXTT22=
EXTT23=
PLAYORDER=
